<svg id="Layer_1" data-name="Layer 1" xmlns="http://www.w3.org/2000/svg" viewBox="0 0 800 800"><defs><style>.cls-1{fill:#eeeed2;}.cls-2{fill:#769656;}</style></defs><g id="Light"><rect class="cls-1" width="800" height="800"/></g><rect class="cls-2" x="99.87" width="100" height="100.22"/><polygon class="cls-2" points="300.1 0 400 0 400 100.2 300 100.2 300.1 0"/><rect class="cls-2" x="500" width="100" height="100.17"/><rect class="cls-2" x="700" width="100" height="100.2"/><rect class="cls-2" x="700" y="600.1" width="100" height="100"/><rect class="cls-2" x="700" y="199.99" width="100" height="100"/><g id="tri"><rect class="cls-2" x="-0.13" y="100.22" width="100" height="100"/><rect class="cls-2" x="199.87" y="100.22" width="100" height="100"/><rect class="cls-2" x="399.87" y="100.22" width="100" height="100"/><rect class="cls-2" x="599.87" y="100.22" width="100" height="100"/></g><g id="tri-2" data-name="tri"><rect class="cls-2" x="-0.13" y="700" width="100" height="100"/><rect class="cls-2" x="199.87" y="700" width="100" height="100"/><rect class="cls-2" x="399.87" y="700" width="100" height="100"/><rect class="cls-2" x="599.87" y="700" width="100" height="100"/></g><g id="tri-3" data-name="tri"><rect class="cls-2" x="-0.13" y="500.42" width="100" height="99.58"/><rect class="cls-2" x="199.87" y="500.42" width="100" height="99.58"/><rect class="cls-2" x="399.87" y="500.42" width="100" height="99.58"/><rect class="cls-2" x="599.87" y="500.42" width="100" height="99.58"/></g><g id="tri-4" data-name="tri"><rect class="cls-2" x="-0.01" y="299.99" width="100" height="100"/><rect class="cls-2" x="199.99" y="299.99" width="100" height="100"/><rect class="cls-2" x="399.99" y="299.99" width="100" height="100"/><rect class="cls-2" x="599.99" y="299.99" width="100" height="100"/></g><rect class="cls-2" x="99.87" y="200.22" width="100" height="100"/><rect class="cls-2" x="299.87" y="200.2" width="100" height="100"/><rect class="cls-2" x="500" y="200" width="100" height="100"/><g id="tri-5" data-name="tri"><rect class="cls-2" x="100" y="400" width="100" height="100.42"/><rect class="cls-2" x="300" y="400" width="100" height="100.42"/><rect class="cls-2" x="500" y="400" width="100" height="100.42"/><rect class="cls-2" x="700" y="400" width="100" height="100.42"/></g><rect class="cls-2" x="100" y="600" width="100" height="100"/><rect class="cls-2" x="300" y="600" width="100" height="100"/><rect class="cls-2" x="500" y="600" width="100" height="100"/></svg>